<svg width="91" height="91" viewBox="0 0 91 91" fill="none" xmlns="http://www.w3.org/2000/svg">
<path d="M45.5 9.5C25.619 9.5 9.5 25.619 9.5 45.5C9.5 62.369 21.116 76.484 36.776 80.39C36.608 79.904 36.5 79.34 36.5 78.641V72.488C35.039 72.488 32.591 72.488 31.976 72.488C29.513 72.488 27.323 71.429 26.261 69.461C25.082 67.274 24.878 63.929 21.956 61.883C21.089 61.202 21.749 60.425 22.748 60.53C24.593 61.052 26.123 62.318 27.563 64.196C28.997 66.077 29.672 66.503 32.351 66.503C33.65 66.503 35.594 66.428 37.424 66.14C38.408 63.641 40.109 61.34 42.188 60.254C30.2 59.021 24.479 53.057 24.479 44.96C24.479 41.474 25.964 38.102 28.487 35.261C27.659 32.441 26.618 26.69 28.805 24.5C34.199 24.5 37.46 27.998 38.243 28.943C40.931 28.022 43.883 27.5 46.985 27.5C50.093 27.5 53.057 28.022 55.751 28.949C56.525 28.01 59.789 24.5 65.195 24.5C67.391 26.693 66.338 32.468 65.501 35.282C68.009 38.117 69.485 41.48 69.485 44.96C69.485 53.051 63.773 59.012 51.803 60.251C55.097 61.97 57.5 66.8 57.5 70.439V78.641C57.5 78.953 57.431 79.178 57.395 79.445C71.423 74.528 81.5 61.208 81.5 45.5C81.5 25.619 65.381 9.5 45.5 9.5Z" fill="#9B5957"/>
</svg>
